<svg xmlns="http://www.w3.org/2000/svg" xmlns:xlink="http://www.w3.org/1999/xlink" width="500" zoomAndPan="magnify" viewBox="0 0 375 374.999991" height="500" preserveAspectRatio="xMidYMid meet" version="1.0"><defs><clipPath id="61db914ef2"><path d="M 40 20 L 335 20 L 335 356.25 L 40 356.25 Z M 40 20 " clip-rule="nonzero"/></clipPath><clipPath id="71aca1f583"><path d="M 59 41 L 316 41 L 316 334.480469 L 59 334.480469 Z M 59 41 " clip-rule="nonzero"/></clipPath></defs><g clip-path="url(#61db914ef2)"><path fill="#ff914d" d="M 40.457031 112.101562 L 40.457031 264.242188 C 40.457031 269.902344 43.46875 275.164062 48.355469 277.996094 L 179.601562 354.105469 C 184.503906 356.949219 190.523438 356.949219 195.425781 354.105469 L 326.617188 278.023438 C 331.519531 275.152344 334.515625 269.929688 334.53125 264.269531 L 334.53125 112.101562 C 334.53125 106.445312 331.503906 101.179688 326.601562 98.320312 L 195.441406 22.277344 C 190.539062 19.4375 184.488281 19.4375 179.617188 22.277344 L 179.585938 22.292969 L 48.339844 98.335938 C 43.4375 101.191406 40.441406 106.445312 40.457031 112.101562 Z M 40.457031 112.101562 " fill-opacity="1" fill-rule="nonzero"/></g><path fill="#545454" d="M 124.496094 296.117188 C 119.394531 296.117188 114.296875 294.824219 109.621094 292.214844 L 103.242188 288.640625 C 98.835938 286.175781 97.261719 280.613281 99.726562 276.183594 C 102.179688 271.789062 107.757812 270.191406 112.183594 272.667969 L 118.554688 276.230469 C 122.410156 278.367188 126.824219 278.34375 130.65625 276.097656 C 134.5 273.828125 136.71875 269.960938 136.71875 265.472656 L 136.71875 134.398438 C 136.71875 129.347656 140.820312 125.25 145.871094 125.25 C 150.921875 125.25 155.019531 129.347656 155.019531 134.398438 L 155.019531 265.472656 C 155.019531 276.453125 149.371094 286.320312 139.917969 291.875 C 135.109375 294.691406 129.800781 296.117188 124.496094 296.117188 Z M 124.496094 296.117188 " fill-opacity="1" fill-rule="nonzero"/><g clip-path="url(#71aca1f583)"><path fill="#545454" d="M 187.523438 334.503906 C 183.703125 334.503906 179.886719 333.515625 176.496094 331.523438 L 147.175781 314.359375 C 142.820312 311.796875 141.34375 306.195312 143.894531 301.839844 C 146.445312 297.472656 152.042969 296.019531 156.410156 298.558594 L 185.730469 315.726562 C 186.828125 316.382812 188.144531 316.394531 189.292969 315.726562 L 295.425781 253.574219 C 296.585938 252.902344 297.304688 251.636719 297.304688 250.21875 L 297.304688 125.957031 C 297.304688 124.566406 296.574219 123.273438 295.402344 122.589844 L 189.316406 60.488281 C 188.195312 59.839844 186.851562 59.828125 185.777344 60.476562 L 79.535156 122.613281 C 78.402344 123.285156 77.695312 124.554688 77.695312 125.933594 L 77.695312 250.21875 C 77.695312 251.585938 78.425781 252.902344 79.546875 253.550781 L 112.34375 272.753906 C 116.699219 275.316406 118.175781 280.917969 115.625 285.273438 C 113.0625 289.617188 107.464844 291.078125 103.109375 288.554688 L 70.3125 269.351562 C 63.578125 265.410156 59.394531 258.066406 59.394531 250.21875 L 59.394531 125.957031 C 59.367188 118.125 63.554688 110.777344 70.289062 106.824219 L 176.480469 44.699219 C 183.289062 40.710938 191.734375 40.699219 198.566406 44.6875 L 304.675781 106.800781 C 311.433594 110.777344 315.605469 118.125 315.605469 125.957031 L 315.605469 250.246094 C 315.582031 258.089844 311.410156 265.386719 304.710938 269.351562 L 198.539062 331.523438 C 195.148438 333.515625 191.332031 334.503906 187.523438 334.503906 Z M 187.523438 334.503906 " fill-opacity="1" fill-rule="nonzero"/></g><path fill="#545454" d="M 217.246094 250.964844 C 189.816406 250.964844 160.511719 241.507812 160.511719 214.960938 C 160.511719 209.910156 164.609375 205.808594 169.660156 205.808594 C 174.714844 205.808594 178.8125 209.910156 178.8125 214.960938 C 178.8125 228.941406 202.96875 232.664062 217.246094 232.664062 C 242.742188 232.664062 255.675781 229.917969 255.675781 214.960938 C 255.675781 207.445312 246.5 204.503906 223.96875 199.136719 L 215.035156 196.976562 C 212.304688 196.304688 209.410156 195.671875 206.445312 195.011719 C 187.058594 190.730469 160.5 184.886719 160.5 161.242188 C 160.5 134.691406 189.804688 125.238281 217.230469 125.238281 C 244.660156 125.238281 273.964844 134.691406 273.964844 161.242188 C 273.964844 166.292969 269.867188 170.390625 264.816406 170.390625 C 259.761719 170.390625 255.664062 166.292969 255.664062 161.242188 C 255.664062 147.257812 231.507812 143.539062 217.230469 143.539062 C 202.957031 143.539062 178.800781 147.269531 178.800781 161.242188 C 178.800781 169.511719 192.488281 173.183594 210.386719 177.136719 C 213.523438 177.832031 216.574219 178.503906 219.441406 179.226562 L 228.199219 181.335938 C 251.746094 186.933594 273.976562 192.230469 273.976562 214.960938 C 273.976562 250.964844 235.65625 250.964844 217.246094 250.964844 Z M 217.246094 250.964844 " fill-opacity="1" fill-rule="nonzero"/></svg>