<svg xmlns="http://www.w3.org/2000/svg" xmlns:xlink="http://www.w3.org/1999/xlink" width="500" zoomAndPan="magnify" viewBox="0 0 375 374.999991" height="500" preserveAspectRatio="xMidYMid meet" version="1.0"><defs><clipPath id="81d841c76e"><path d="M 40 20 L 335 20 L 335 356.25 L 40 356.25 Z M 40 20 " clip-rule="nonzero"/></clipPath><clipPath id="38207fdab4"><path d="M 74.179688 74.179688 L 300.679688 74.179688 L 300.679688 300.679688 L 74.179688 300.679688 Z M 74.179688 74.179688 " clip-rule="nonzero"/></clipPath></defs><rect x="-37.5" width="450" fill="#ffffff" y="-37.499999" height="449.999989" fill-opacity="1"/><rect x="-37.5" width="450" fill="#ffffff" y="-37.499999" height="449.999989" fill-opacity="1"/><g clip-path="url(#81d841c76e)"><path fill="#ffd600" d="M 40.457031 112.101562 L 40.457031 264.242188 C 40.457031 269.902344 43.46875 275.164062 48.355469 277.996094 L 179.601562 354.105469 C 184.503906 356.949219 190.523438 356.949219 195.425781 354.105469 L 326.617188 278.023438 C 331.519531 275.152344 334.515625 269.929688 334.53125 264.269531 L 334.53125 112.101562 C 334.53125 106.445312 331.503906 101.179688 326.601562 98.320312 L 195.441406 22.277344 C 190.539062 19.4375 184.488281 19.4375 179.617188 22.277344 L 179.585938 22.292969 L 48.339844 98.335938 C 43.4375 101.191406 40.441406 106.445312 40.457031 112.101562 Z M 40.457031 112.101562 " fill-opacity="1" fill-rule="nonzero"/></g><g clip-path="url(#38207fdab4)"><path fill="#ffffff" d="M 88.578125 74.179688 C 80.695312 74.179688 74.179688 80.695312 74.179688 88.578125 L 74.179688 286.414062 C 74.179688 294.296875 80.695312 300.808594 88.578125 300.808594 L 286.414062 300.808594 C 294.296875 300.808594 300.808594 294.320312 300.808594 286.414062 L 300.808594 88.578125 C 300.808594 80.695312 294.320312 74.179688 286.414062 74.179688 Z M 88.578125 84.972656 L 286.414062 84.972656 C 288.417969 84.972656 290.019531 86.574219 290.019531 88.578125 L 290.019531 286.414062 C 290.019531 288.417969 288.417969 290.019531 286.414062 290.019531 L 88.578125 290.019531 C 86.574219 290.019531 84.972656 288.417969 84.972656 286.414062 L 84.972656 88.578125 C 84.972656 86.574219 86.574219 84.972656 88.578125 84.972656 Z M 176.703125 176.703125 L 176.703125 244.554688 C 176.703125 254.964844 172.761719 257.644531 165.914062 257.644531 C 158.746094 257.644531 153.769531 253.175781 150.484375 247.378906 L 133.535156 257.644531 C 138.449219 268.035156 150.484375 279.226562 167.175781 279.226562 C 185.640625 279.226562 198.289062 269.40625 198.289062 247.84375 L 198.289062 176.703125 Z M 243.898438 176.703125 C 225.519531 176.703125 213.738281 188.464844 213.738281 203.914062 C 213.738281 220.671875 223.625 228.597656 238.484375 234.921875 L 243.625 237.132812 C 253.007812 241.246094 257.644531 243.753906 257.644531 250.8125 C 257.644531 256.695312 253.175781 260.953125 244.636719 260.953125 C 234.476562 260.953125 229.671875 254.058594 225.265625 246.851562 L 209.078125 257.644531 C 215.128906 269.59375 225.984375 279.226562 245.101562 279.226562 C 264.660156 279.226562 279.226562 269.066406 279.226562 250.539062 C 279.226562 233.339844 269.363281 225.6875 251.847656 218.183594 L 246.703125 215.992188 C 237.871094 212.15625 234.035156 209.667969 234.035156 203.492188 C 234.035156 198.5 237.871094 194.664062 243.898438 194.664062 C 249.824219 194.664062 253.617188 197.171875 257.136719 203.492188 L 273.175781 193.207031 C 266.410156 181.257812 256.988281 176.703125 243.898438 176.703125 Z M 243.898438 176.703125 " fill-opacity="1" fill-rule="nonzero"/></g></svg>